<svg width="574" height="296" viewBox="0 0 574 296" fill="none" xmlns="http://www.w3.org/2000/svg">
<path d="M49 124C49 160 86 170.5 105 170.5H248.5C261 170.5 282 186.5 286.5 206" stroke="url(#paint0_linear_648_29)"/>
<path d="M524.5 124C524.5 160 487.5 170.5 468.5 170.5H325C312.5 170.5 291.5 186.5 287 206" stroke="url(#paint1_linear_648_29)"/>
<rect x="474.5" y="24.5" width="99" height="99" rx="14.5" fill="white" stroke="black"/>
<path fill-rule="evenodd" clip-rule="evenodd" d="M509.251 60.4026L536.032 98.3333H524.128L497.347 60.4026H509.251ZM509.24 81.4693L515.195 89.9066L509.245 98.3333H497.333L509.24 81.4693ZM550.667 43.8853V98.3333H540.909V57.704L550.667 43.8853ZM550.667 39.6666L524.128 77.2533L518.173 68.8186L538.755 39.6666H550.667Z" fill="black"/>
<rect x="158.5" y="24.5" width="99" height="99" rx="14.5" fill="white" stroke="black"/>
<path fill-rule="evenodd" clip-rule="evenodd" d="M213.481 48.5601H224.29L244 98.0001H233.191L213.481 48.5601ZM191.707 48.5601H203.008L222.718 98.0001H211.696L207.667 87.6171H187.051L183.019 97.9971H172L191.71 48.5661L191.707 48.5601ZM204.103 78.4371L197.359 61.0611L190.615 78.4401H204.1L204.103 78.4371Z" fill="black"/>
<rect x="0.5" y="24.5" width="99" height="99" rx="14.5" fill="white" stroke="black"/>
<g clip-path="url(#clip0_648_29)">
<rect width="75" height="75" transform="translate(13 36)" fill="white"/>
<path fill-rule="evenodd" clip-rule="evenodd" d="M87.2123 50.0062C86.4186 49.6187 86.0748 50.3593 85.6123 50.7375C85.453 50.8593 85.3186 51.0187 85.1842 51.1625C84.0217 52.4031 82.6655 53.2156 80.8936 53.1187C78.303 52.975 76.0905 53.7875 74.1342 55.7687C73.7186 53.325 72.3373 51.8687 70.2373 50.9312C69.1373 50.4437 68.0248 49.9593 67.253 48.9C66.7155 48.1468 66.5686 47.3062 66.2998 46.4812C66.128 45.9812 65.9561 45.4718 65.3842 45.3875C64.7592 45.2906 64.5155 45.8125 64.2717 46.25C63.2936 48.0375 62.9155 50.0062 62.953 52C63.0373 56.4875 64.9311 60.0625 68.6967 62.6031C69.1248 62.8937 69.2342 63.1875 69.0998 63.6125C68.8436 64.4875 68.5373 65.3375 68.2686 66.2156C68.0967 66.775 67.8405 66.8937 67.2405 66.6531C65.2131 65.7818 63.3716 64.5301 61.8155 62.9656C59.1373 60.3781 56.7186 57.5218 53.6998 55.2843C53.0004 54.7675 52.2822 54.2766 51.5467 53.8125C48.4686 50.8218 51.953 48.3656 52.7592 48.075C53.603 47.7687 53.0498 46.725 50.3248 46.7375C47.5998 46.75 45.1061 47.6593 41.928 48.875C41.4557 49.0559 40.9698 49.1991 40.4748 49.3031C37.5049 48.7435 34.4675 48.636 31.4655 48.9843C25.5748 49.6406 20.8717 52.4281 17.4123 57.1812C13.2561 62.8937 12.278 69.3875 13.4748 76.1562C14.7342 83.2937 18.378 89.2031 23.9748 93.8218C29.7811 98.6125 36.4655 100.959 44.0936 100.509C48.7248 100.244 53.8842 99.6218 59.6998 94.6968C61.1686 95.4281 62.7061 95.7187 65.2623 95.9375C67.2311 96.1218 69.1248 95.8437 70.5905 95.5375C72.8873 95.05 72.728 92.9218 71.8998 92.5343C65.1655 89.3968 66.6436 90.675 65.2967 89.6406C68.7217 85.5906 73.878 81.3843 75.8967 67.7562C76.053 66.6718 75.9186 65.9906 75.8967 65.1156C75.8842 64.5843 76.0061 64.375 76.6155 64.3156C78.3062 64.1402 79.9463 63.636 81.4436 62.8312C85.8061 60.4468 87.5686 56.5343 87.9842 51.8406C88.0467 51.1218 87.9717 50.3843 87.2123 50.0062ZM49.1905 92.25C42.6623 87.1187 39.4967 85.4281 38.1905 85.5C36.9655 85.575 37.1873 86.9718 37.4561 87.8843C37.7373 88.7843 38.103 89.4031 38.6155 90.1937C38.9717 90.7156 39.2155 91.4937 38.2623 92.0781C36.1592 93.3781 32.5061 91.6406 32.3342 91.5562C28.0811 89.05 24.5217 85.7437 22.0186 81.2218C19.5998 76.8687 18.1936 72.2 17.9623 67.2156C17.8998 66.0093 18.253 65.5843 19.453 65.3656C21.0283 65.0641 22.6424 65.023 24.2311 65.2437C30.8936 66.2187 36.5623 69.1968 41.3186 73.9125C44.0311 76.6 46.0842 79.8093 48.1998 82.9468C50.4498 86.2781 52.8686 89.4531 55.9498 92.0531C57.0373 92.9656 57.903 93.6593 58.7342 94.1687C56.228 94.45 52.0467 94.5125 49.1905 92.25ZM52.3155 72.125C52.3149 71.9697 52.3522 71.8167 52.424 71.6791C52.4959 71.5415 52.6001 71.4234 52.7278 71.3351C52.8555 71.2468 53.0027 71.1909 53.1568 71.1723C53.311 71.1536 53.4673 71.1728 53.6123 71.2281C53.7972 71.2944 53.9568 71.4168 54.0688 71.5781C54.1809 71.7394 54.2398 71.9317 54.2373 72.1281C54.2378 72.255 54.2129 72.3807 54.1643 72.4979C54.1156 72.6151 54.0441 72.7215 53.954 72.8108C53.8638 72.9 53.7568 72.9705 53.6391 73.018C53.5214 73.0655 53.3955 73.0891 53.2686 73.0875C53.1427 73.0879 53.0179 73.0632 52.9016 73.0148C52.7854 72.9665 52.6799 72.8954 52.5914 72.8058C52.503 72.7161 52.4333 72.6097 52.3864 72.4929C52.3396 72.376 52.3134 72.2509 52.3155 72.125ZM62.0342 77.1125C61.4092 77.3656 60.7873 77.5843 60.1905 77.6125C59.2925 77.6438 58.4114 77.3633 57.6967 76.8187C56.8405 76.1 56.228 75.7 55.9717 74.45C55.8834 73.8391 55.9003 73.2176 56.0217 72.6125C56.2405 71.5906 55.9967 70.9343 55.2748 70.3406C54.6905 69.8531 53.9436 69.7187 53.1248 69.7187C52.8445 69.7024 52.5722 69.6188 52.3311 69.475C51.9873 69.3062 51.7061 68.8812 51.9748 68.3562C52.0623 68.1875 52.4748 67.775 52.5748 67.7C53.6873 67.0687 54.9717 67.275 56.1561 67.75C57.2561 68.2 58.0873 69.025 59.2842 70.1937C60.5061 71.6031 60.728 71.9937 61.4248 73.05C61.9748 73.8781 62.4748 74.7281 62.8155 75.7C63.0248 76.3093 62.7561 76.8062 62.0342 77.1125Z" fill="black"/>
</g>
<rect x="316.5" y="24.5" width="99" height="99" rx="14.5" fill="white" stroke="black"/>
<mask id="mask0_648_29" style="mask-type:luminance" maskUnits="userSpaceOnUse" x="316" y="24" width="100" height="100">
<path d="M415.945 24.0139H316.084V123.875H415.945V24.0139Z" fill="white"/>
</mask>
<g mask="url(#mask0_648_29)">
<mask id="mask1_648_29" style="mask-type:luminance" maskUnits="userSpaceOnUse" x="332" y="40" width="68" height="68">
<path d="M399.592 40.6378H332.443V107.187H399.592V40.6378Z" fill="white"/>
</mask>
<g mask="url(#mask1_648_29)">
<path d="M358.198 64.8615V58.5393C358.198 58.0069 358.398 57.6074 358.863 57.3416L371.574 50.0212C373.305 49.023 375.368 48.5574 377.497 48.5574C385.483 48.5574 390.541 54.7466 390.541 61.3346C390.541 61.8004 390.541 62.3328 390.474 62.8653L377.297 55.1454C376.499 54.6798 375.7 54.6798 374.901 55.1454L358.198 64.8615ZM387.879 89.4848V74.3779C387.879 73.446 387.479 72.7805 386.681 72.3148L369.977 62.5987L375.434 59.4707C375.9 59.2048 376.299 59.2048 376.765 59.4707L389.476 66.7911C393.136 68.9209 395.598 73.446 395.598 77.838C395.598 82.8955 392.604 87.5542 387.879 89.4843V89.4848ZM354.271 76.1751L348.814 72.981C348.349 72.7151 348.149 72.3155 348.149 71.783V57.1424C348.149 50.0219 353.606 44.631 360.993 44.631C363.788 44.631 366.383 45.5629 368.58 47.2266L355.47 54.8134C354.672 55.279 354.272 55.9445 354.272 56.8765V76.1757L354.271 76.1751ZM366.017 82.9629L358.198 78.5708V69.2543L366.017 64.8622L373.837 69.2543V78.5708L366.017 82.9629ZM371.042 103.194C368.247 103.194 365.652 102.262 363.455 100.599L376.565 93.0117C377.363 92.5461 377.763 91.8807 377.763 90.9486V71.6495L383.287 74.8436C383.752 75.1095 383.952 75.509 383.952 76.0416V90.6822C383.952 97.8027 378.428 103.194 371.042 103.194V103.194ZM355.27 88.3538L342.558 81.0335C338.898 78.9036 336.436 74.3786 336.436 69.9865C336.436 64.8622 339.497 60.2704 344.222 58.3403V73.5134C344.222 74.4453 344.621 75.1108 345.42 75.5765L362.057 85.2257L356.6 88.3538C356.135 88.6196 355.735 88.6196 355.27 88.3538ZM354.538 99.2678C347.018 99.2678 341.494 93.611 341.494 86.6234C341.494 86.0909 341.561 85.5585 341.627 85.026L354.737 92.6129C355.535 93.0786 356.334 93.0786 357.133 92.6129L373.837 82.9636V89.2858C373.837 89.8183 373.637 90.2177 373.171 90.4836L360.46 97.804C358.73 98.8022 356.667 99.2678 354.537 99.2678H354.538ZM371.042 107.187C379.094 107.187 385.815 101.464 387.347 93.8769C394.8 91.9468 399.592 84.9592 399.592 77.8386C399.592 73.18 397.595 68.655 394.002 65.394C394.334 63.9963 394.534 62.5987 394.534 61.2018C394.534 51.6854 386.814 44.5642 377.896 44.5642C376.1 44.5642 374.37 44.8301 372.639 45.4294C369.644 42.5011 365.518 40.6378 360.993 40.6378C352.941 40.6378 346.22 46.3607 344.688 53.9475C337.235 55.8776 332.443 62.8653 332.443 69.9858C332.443 74.6445 334.44 79.1694 338.033 82.4305C337.701 83.8281 337.501 85.2257 337.501 86.6228C337.501 96.1392 345.221 103.26 354.138 103.26C355.935 103.26 357.665 102.994 359.396 102.395C362.39 105.323 366.516 107.187 371.042 107.187Z" fill="black"/>
</g>
</g>
<line x1="444.75" x2="444.75" y2="290" stroke="url(#paint2_linear_648_29)" stroke-width="1.5" stroke-dasharray="4.5 9.2"/>
<line x1="128.75" x2="128.75" y2="290" stroke="url(#paint3_linear_648_29)" stroke-width="1.5" stroke-dasharray="4.5 9.2"/>
<g filter="url(#filter0_f_648_29)">
<circle cx="287" cy="221" r="70" fill="#D1D5DC" fill-opacity="0.5"/>
</g>
<g filter="url(#filter1_f_648_29)">
<circle cx="287" cy="221" r="48" fill="#D1D5DC"/>
</g>
<line x1="287.5" y1="223" x2="287.5" y2="291" stroke="black"/>
<g filter="url(#filter2_f_648_29)">
<circle cx="287" cy="221" r="24" fill="#99A1AF" fill-opacity="0.75"/>
</g>
<circle cx="287" cy="221" r="15" fill="white"/>
<circle cx="287" cy="221" r="13" fill="#364153"/>
<path d="M199.001 124C202.654 165.858 236.228 170.53 248.001 170.5C259.774 170.47 279.5 183 286.5 206" stroke="black"/>
<path d="M374.499 124C370.846 165.858 337.272 170.53 325.499 170.5C313.726 170.47 294 183 287 206" stroke="black"/>
<line x1="287.25" y1="-0.0012207" x2="287.25" y2="206.001" stroke="url(#paint4_linear_648_29)" stroke-width="1.5" stroke-dasharray="4.5 9.2"/>
<defs>
<filter id="filter0_f_648_29" x="212" y="146" width="150" height="150" filterUnits="userSpaceOnUse" color-interpolation-filters="sRGB">
<feFlood flood-opacity="0" result="BackgroundImageFix"/>
<feBlend mode="normal" in="SourceGraphic" in2="BackgroundImageFix" result="shape"/>
<feGaussianBlur stdDeviation="2.5" result="effect1_foregroundBlur_648_29"/>
</filter>
<filter id="filter1_f_648_29" x="236" y="170" width="102" height="102" filterUnits="userSpaceOnUse" color-interpolation-filters="sRGB">
<feFlood flood-opacity="0" result="BackgroundImageFix"/>
<feBlend mode="normal" in="SourceGraphic" in2="BackgroundImageFix" result="shape"/>
<feGaussianBlur stdDeviation="1.5" result="effect1_foregroundBlur_648_29"/>
</filter>
<filter id="filter2_f_648_29" x="261" y="195" width="52" height="52" filterUnits="userSpaceOnUse" color-interpolation-filters="sRGB">
<feFlood flood-opacity="0" result="BackgroundImageFix"/>
<feBlend mode="normal" in="SourceGraphic" in2="BackgroundImageFix" result="shape"/>
<feGaussianBlur stdDeviation="1" result="effect1_foregroundBlur_648_29"/>
</filter>
<linearGradient id="paint0_linear_648_29" x1="167.75" y1="124" x2="167.75" y2="206" gradientUnits="userSpaceOnUse">
<stop stop-opacity="0.1"/>
<stop offset="1"/>
</linearGradient>
<linearGradient id="paint1_linear_648_29" x1="405.75" y1="124" x2="405.75" y2="206" gradientUnits="userSpaceOnUse">
<stop stop-opacity="0.1"/>
<stop offset="1"/>
</linearGradient>
<linearGradient id="paint2_linear_648_29" x1="443.5" y1="0" x2="443.5" y2="290" gradientUnits="userSpaceOnUse">
<stop stop-color="#6A7282" stop-opacity="0.8"/>
<stop offset="1" stop-color="#6A7282" stop-opacity="0"/>
</linearGradient>
<linearGradient id="paint3_linear_648_29" x1="127.5" y1="0" x2="127.5" y2="290" gradientUnits="userSpaceOnUse">
<stop stop-color="#6A7282" stop-opacity="0.8"/>
<stop offset="1" stop-color="#6A7282" stop-opacity="0"/>
</linearGradient>
<linearGradient id="paint4_linear_648_29" x1="286" y1="-0.0012207" x2="286" y2="206.001" gradientUnits="userSpaceOnUse">
<stop stop-color="#6A7282" stop-opacity="0.8"/>
<stop offset="1" stop-color="#6A7282" stop-opacity="0"/>
</linearGradient>
<clipPath id="clip0_648_29">
<rect width="75" height="75" fill="white" transform="translate(13 36)"/>
</clipPath>
</defs>
</svg>
